<?xml version="1.0" encoding="UTF-8"?>
<svg xmlns="http://www.w3.org/2000/svg" width="830" height="1302" viewBox="0 0 830 1302">
<style>
  .bg { fill: #f7f7f5; }
  .title { font: 700 17px ui-sans-serif, -apple-system, BlinkMacSystemFont, "Segoe UI", sans-serif; fill: #202124; }
  .key { fill: #ffffff; stroke: #c8c8c8; stroke-width: 1.2; }
  .trans { fill: #eeeeec; stroke: #d7d7d4; }
  .held { fill: #e8f0fe; stroke: #8ab4f8; }
  .tap { font: 600 11px ui-sans-serif, -apple-system, BlinkMacSystemFont, "Segoe UI", sans-serif; fill: #202124; text-anchor: middle; dominant-baseline: middle; }
  .hold { font: 600 8px ui-sans-serif, -apple-system, BlinkMacSystemFont, "Segoe UI", sans-serif; fill: #5f6368; text-anchor: middle; }
  .combo { font: 600 12px ui-sans-serif, -apple-system, BlinkMacSystemFont, "Segoe UI", sans-serif; fill: #3c4043; }
</style>
<rect class="bg" x="0" y="0" width="830" height="1302"/>
<text class="title" x="34.0" y="30.0">default:</text>
<g transform="translate(34.0, 79.73)">
  <rect class="key" x="0" y="0" width="52.0" height="52.0" rx="6"/>
  <text class="tap" style="font-size: 11px" x="26.0" y="26.0">Q</text>
</g>
<g transform="translate(92.17, 58.33)">
  <rect class="key" x="0" y="0" width="52.0" height="52.0" rx="6"/>
  <text class="tap" style="font-size: 11px" x="26.0" y="26.0">W</text>
</g>
<g transform="translate(150.29, 44.0)">
  <rect class="key" x="0" y="0" width="52.0" height="52.0" rx="6"/>
  <text class="tap" style="font-size: 11px" x="26.0" y="26.0">E</text>
</g>
<g transform="translate(208.46, 51.66)">
  <rect class="key" x="0" y="0" width="52.0" height="52.0" rx="6"/>
  <text class="tap" style="font-size: 11px" x="26.0" y="26.0">R</text>
</g>
<g transform="translate(266.64, 59.25)">
  <rect class="key" x="0" y="0" width="52.0" height="52.0" rx="6"/>
  <text class="tap" style="font-size: 11px" x="26.0" y="26.0">T</text>
</g>
<g transform="translate(527.23, 59.31)">
  <rect class="key" x="0" y="0" width="52.0" height="52.0" rx="6"/>
  <text class="tap" style="font-size: 11px" x="26.0" y="26.0">Y</text>
</g>
<g transform="translate(585.35, 51.71)">
  <rect class="key" x="0" y="0" width="52.0" height="52.0" rx="6"/>
  <text class="tap" style="font-size: 11px" x="26.0" y="26.0">U</text>
</g>
<g transform="translate(643.52, 44.06)">
  <rect class="key" x="0" y="0" width="52.0" height="52.0" rx="6"/>
  <text class="tap" style="font-size: 11px" x="26.0" y="26.0">I</text>
</g>
<g transform="translate(701.7, 58.38)">
  <rect class="key" x="0" y="0" width="52.0" height="52.0" rx="6"/>
  <text class="tap" style="font-size: 11px" x="26.0" y="26.0">O</text>
</g>
<g transform="translate(759.81, 79.79)">
  <rect class="key" x="0" y="0" width="52.0" height="52.0" rx="6"/>
  <text class="tap" style="font-size: 11px" x="26.0" y="26.0">P</text>
</g>
<g transform="translate(34.0, 137.84)">
  <rect class="key" x="0" y="0" width="52.0" height="52.0" rx="6"/>
  <text class="tap" style="font-size: 11px" x="26.0" y="26.0">A</text>
</g>
<g transform="translate(92.17, 116.5)">
  <rect class="key" x="0" y="0" width="52.0" height="52.0" rx="6"/>
  <text class="tap" style="font-size: 11px" x="26.0" y="26.0">S</text>
</g>
<g transform="translate(150.29, 102.17)">
  <rect class="key" x="0" y="0" width="52.0" height="52.0" rx="6"/>
  <text class="tap" style="font-size: 11px" x="26.0" y="26.0">D</text>
</g>
<g transform="translate(208.46, 109.77)">
  <rect class="key" x="0" y="0" width="52.0" height="52.0" rx="6"/>
  <text class="tap" style="font-size: 11px" x="26.0" y="26.0">F</text>
</g>
<g transform="translate(266.64, 117.43)">
  <rect class="key" x="0" y="0" width="52.0" height="52.0" rx="6"/>
  <text class="tap" style="font-size: 11px" x="26.0" y="26.0">G</text>
</g>
<g transform="translate(324.87, 131.23)">
  <rect class="key" x="0" y="0" width="52.0" height="52.0" rx="6"/>
  <text class="tap" style="font-size: 10px" x="26.0" y="26.0">&amp;mkp MB2</text>
</g>
<g transform="translate(469.06, 131.29)">
  <rect class="key" x="0" y="0" width="52.0" height="52.0" rx="6"/>
  <text class="tap" style="font-size: 10px" x="26.0" y="26.0">Gui+Sft+4</text>
</g>
<g transform="translate(527.23, 117.49)">
  <rect class="key" x="0" y="0" width="52.0" height="52.0" rx="6"/>
  <text class="tap" style="font-size: 11px" x="26.0" y="26.0">H</text>
</g>
<g transform="translate(585.35, 109.83)">
  <rect class="key" x="0" y="0" width="52.0" height="52.0" rx="6"/>
  <text class="tap" style="font-size: 10px" x="26.0" y="26.0">&amp;mkp MB1</text>
</g>
<g transform="translate(643.52, 102.23)">
  <rect class="key" x="0" y="0" width="52.0" height="52.0" rx="6"/>
  <text class="tap" style="font-size: 11px" x="26.0" y="26.0">K</text>
</g>
<g transform="translate(701.7, 116.56)">
  <rect class="key" x="0" y="0" width="52.0" height="52.0" rx="6"/>
  <text class="tap" style="font-size: 11px" x="26.0" y="26.0">L</text>
</g>
<g transform="translate(759.81, 137.9)">
  <rect class="key" x="0" y="0" width="52.0" height="52.0" rx="6"/>
  <text class="tap" style="font-size: 11px" x="26.0" y="26.0">;</text>
</g>
<g transform="translate(34.0, 196.02)">
  <rect class="key" x="0" y="0" width="52.0" height="52.0" rx="6"/>
  <text class="tap" style="font-size: 11px" x="26.0" y="26.0">Z</text>
</g>
<g transform="translate(92.17, 174.67)">
  <rect class="key" x="0" y="0" width="52.0" height="52.0" rx="6"/>
  <text class="tap" style="font-size: 11px" x="26.0" y="26.0">X</text>
</g>
<g transform="translate(150.29, 160.29)">
  <rect class="key" x="0" y="0" width="52.0" height="52.0" rx="6"/>
  <text class="tap" style="font-size: 11px" x="26.0" y="26.0">C</text>
</g>
<g transform="translate(208.46, 167.95)">
  <rect class="key" x="0" y="0" width="52.0" height="52.0" rx="6"/>
  <text class="tap" style="font-size: 11px" x="26.0" y="26.0">V</text>
</g>
<g transform="translate(266.64, 175.54)">
  <rect class="key" x="0" y="0" width="52.0" height="52.0" rx="6"/>
  <text class="tap" style="font-size: 11px" x="26.0" y="26.0">B</text>
</g>
<g transform="translate(324.75, 189.41)">
  <rect class="key" x="0" y="0" width="52.0" height="52.0" rx="6"/>
  <text class="tap" style="font-size: 11px" x="26.0" y="26.0">LCTRL</text>
</g>
<g transform="translate(469.06, 189.46)">
  <rect class="key" x="0" y="0" width="52.0" height="52.0" rx="6"/>
  <text class="tap" style="font-size: 11px" x="26.0" y="26.0">LANG2</text>
</g>
<g transform="translate(527.23, 175.6)">
  <rect class="key" x="0" y="0" width="52.0" height="52.0" rx="6"/>
  <text class="tap" style="font-size: 11px" x="26.0" y="26.0">N</text>
</g>
<g transform="translate(585.35, 168.0)">
  <rect class="key" x="0" y="0" width="52.0" height="52.0" rx="6"/>
  <text class="tap" style="font-size: 11px" x="26.0" y="26.0">M</text>
</g>
<g transform="translate(643.52, 160.35)">
  <rect class="key" x="0" y="0" width="52.0" height="52.0" rx="6"/>
  <text class="tap" style="font-size: 11px" x="26.0" y="26.0">,</text>
</g>
<g transform="translate(701.7, 174.73)">
  <rect class="key" x="0" y="0" width="52.0" height="52.0" rx="6"/>
  <text class="tap" style="font-size: 11px" x="26.0" y="26.0">.</text>
</g>
<g transform="translate(759.81, 196.08)">
  <rect class="key" x="0" y="0" width="52.0" height="52.0" rx="6"/>
  <text class="tap" style="font-size: 11px" x="26.0" y="26.0">/</text>
</g>
<g transform="translate(34.0, 254.19)">
  <rect class="key" x="0" y="0" width="52.0" height="52.0" rx="6"/>
  <text class="tap" style="font-size: 11px" x="26.0" y="26.0">LCTRL</text>
</g>
<g transform="translate(92.17, 232.79)">
  <rect class="key" x="0" y="0" width="52.0" height="52.0" rx="6"/>
  <text class="tap" style="font-size: 11px" x="26.0" y="26.0">LEFT WIN</text>
</g>
<g transform="translate(150.23, 218.41)">
  <rect class="key" x="0" y="0" width="52.0" height="52.0" rx="6"/>
  <text class="tap" style="font-size: 11px" x="26.0" y="26.0">LEFT ALT</text>
</g>
<g transform="translate(220.7, 248.45)">
  <rect class="key" x="0" y="0" width="52.0" height="52.0" rx="6"/>
  <text class="tap" style="font-size: 11px" x="26.0" y="26.0">TAB</text>
  <text class="hold" x="26.0" y="45.0">SCROLL</text>
</g>
<g transform="translate(285.84, 253.79)">
  <rect class="key" x="0" y="0" width="52.0" height="52.0" rx="6"/>
  <text class="tap" style="font-size: 11px" x="26.0" y="26.0">SPACE</text>
  <text class="hold" x="26.0" y="45.0">NUM</text>
</g>
<g transform="translate(350.16, 270.72)">
  <rect class="key" x="0" y="0" width="52.0" height="52.0" rx="6"/>
  <text class="tap" style="font-size: 11px" x="26.0" y="26.0">F19</text>
  <text class="hold" x="26.0" y="45.0">LSHIFT</text>
</g>
<g transform="translate(443.42, 270.78)">
  <rect class="key" x="0" y="0" width="52.0" height="52.0" rx="6"/>
  <text class="tap" style="font-size: 10px" x="26.0" y="26.0">BACKSPACE</text>
  <text class="hold" x="26.0" y="45.0">SYMBOL</text>
</g>
<g transform="translate(507.16, 253.73)">
  <rect class="key" x="0" y="0" width="52.0" height="52.0" rx="6"/>
  <text class="tap" style="font-size: 11px" x="26.0" y="26.0">ENTER</text>
  <text class="hold" x="26.0" y="45.0">LEFT COMMAND</text>
</g>
<g transform="translate(759.81, 254.25)">
  <rect class="key" x="0" y="0" width="52.0" height="52.0" rx="6"/>
  <text class="tap" style="font-size: 11px" x="26.0" y="26.0">ESC</text>
</g>
<text class="title" x="34.0" y="314.0">SYMBOL:</text>
<g transform="translate(34.0, 363.73)">
  <rect class="key trans" x="0" y="0" width="52.0" height="52.0" rx="6"/>
  <text class="tap" style="font-size: 11px" x="26.0" y="26.0">▽</text>
</g>
<g transform="translate(92.17, 342.33)">
  <rect class="key" x="0" y="0" width="52.0" height="52.0" rx="6"/>
  <text class="tap" style="font-size: 11px" x="26.0" y="26.0">&amp;</text>
</g>
<g transform="translate(150.29, 328.0)">
  <rect class="key" x="0" y="0" width="52.0" height="52.0" rx="6"/>
  <text class="tap" style="font-size: 11px" x="26.0" y="26.0">*</text>
</g>
<g transform="translate(208.46, 335.66)">
  <rect class="key" x="0" y="0" width="52.0" height="52.0" rx="6"/>
  <text class="tap" x="26.0" y="20.0">NON</text>
  <text class="tap" x="26.0" y="34.0">US BACKSLASH</text>
</g>
<g transform="translate(266.64, 343.25)">
  <rect class="key trans" x="0" y="0" width="52.0" height="52.0" rx="6"/>
  <text class="tap" style="font-size: 11px" x="26.0" y="26.0">▽</text>
</g>
<g transform="translate(527.23, 343.31)">
  <rect class="key" x="0" y="0" width="52.0" height="52.0" rx="6"/>
  <text class="tap" style="font-size: 11px" x="26.0" y="26.0">=</text>
</g>
<g transform="translate(585.35, 335.71)">
  <rect class="key" x="0" y="0" width="52.0" height="52.0" rx="6"/>
  <text class="tap" style="font-size: 11px" x="26.0" y="26.0">_</text>
</g>
<g transform="translate(643.52, 328.06)">
  <rect class="key" x="0" y="0" width="52.0" height="52.0" rx="6"/>
  <text class="tap" style="font-size: 11px" x="26.0" y="26.0">]</text>
</g>
<g transform="translate(701.7, 342.38)">
  <rect class="key" x="0" y="0" width="52.0" height="52.0" rx="6"/>
  <text class="tap" style="font-size: 11px" x="26.0" y="26.0">~</text>
</g>
<g transform="translate(759.81, 363.79)">
  <rect class="key" x="0" y="0" width="52.0" height="52.0" rx="6"/>
  <text class="tap" style="font-size: 11px" x="26.0" y="26.0">`</text>
</g>
<g transform="translate(34.0, 421.84)">
  <rect class="key" x="0" y="0" width="52.0" height="52.0" rx="6"/>
  <text class="tap" style="font-size: 11px" x="26.0" y="26.0">?</text>
</g>
<g transform="translate(92.17, 400.5)">
  <rect class="key" x="0" y="0" width="52.0" height="52.0" rx="6"/>
  <text class="tap" style="font-size: 11px" x="26.0" y="26.0">$</text>
</g>
<g transform="translate(150.29, 386.17)">
  <rect class="key" x="0" y="0" width="52.0" height="52.0" rx="6"/>
  <text class="tap" style="font-size: 11px" x="26.0" y="26.0">%</text>
</g>
<g transform="translate(208.46, 393.77)">
  <rect class="key" x="0" y="0" width="52.0" height="52.0" rx="6"/>
  <text class="tap" style="font-size: 11px" x="26.0" y="26.0">LCTRL</text>
</g>
<g transform="translate(266.64, 401.43)">
  <rect class="key" x="0" y="0" width="52.0" height="52.0" rx="6"/>
  <text class="tap" style="font-size: 11px" x="26.0" y="26.0">+</text>
</g>
<g transform="translate(324.87, 415.23)">
  <rect class="key trans" x="0" y="0" width="52.0" height="52.0" rx="6"/>
  <text class="tap" style="font-size: 11px" x="26.0" y="26.0">▽</text>
</g>
<g transform="translate(469.06, 415.29)">
  <rect class="key trans" x="0" y="0" width="52.0" height="52.0" rx="6"/>
  <text class="tap" style="font-size: 11px" x="26.0" y="26.0">▽</text>
</g>
<g transform="translate(527.23, 401.49)">
  <rect class="key" x="0" y="0" width="52.0" height="52.0" rx="6"/>
  <text class="tap" style="font-size: 11px" x="26.0" y="26.0">[]</text>
</g>
<g transform="translate(585.35, 393.83)">
  <rect class="key" x="0" y="0" width="52.0" height="52.0" rx="6"/>
  <text class="tap" style="font-size: 11px" x="26.0" y="26.0">()</text>
</g>
<g transform="translate(643.52, 386.23)">
  <rect class="key" x="0" y="0" width="52.0" height="52.0" rx="6"/>
  <text class="tap" style="font-size: 11px" x="26.0" y="26.0">{}</text>
</g>
<g transform="translate(701.7, 400.56)">
  <rect class="key" x="0" y="0" width="52.0" height="52.0" rx="6"/>
  <text class="tap" style="font-size: 10px" x="26.0" y="26.0">&quot;&quot;</text>
</g>
<g transform="translate(759.81, 421.9)">
  <rect class="key" x="0" y="0" width="52.0" height="52.0" rx="6"/>
  <text class="tap" style="font-size: 10px" x="26.0" y="26.0">&#39;&#39;</text>
</g>
<g transform="translate(34.0, 480.02)">
  <rect class="key trans" x="0" y="0" width="52.0" height="52.0" rx="6"/>
  <text class="tap" style="font-size: 11px" x="26.0" y="26.0">▽</text>
</g>
<g transform="translate(92.17, 458.67)">
  <rect class="key" x="0" y="0" width="52.0" height="52.0" rx="6"/>
  <text class="tap" style="font-size: 11px" x="26.0" y="26.0">!</text>
</g>
<g transform="translate(150.29, 444.29)">
  <rect class="key" x="0" y="0" width="52.0" height="52.0" rx="6"/>
  <text class="tap" style="font-size: 11px" x="26.0" y="26.0">@</text>
</g>
<g transform="translate(208.46, 451.95)">
  <rect class="key" x="0" y="0" width="52.0" height="52.0" rx="6"/>
  <text class="tap" style="font-size: 11px" x="26.0" y="26.0">#</text>
</g>
<g transform="translate(266.64, 459.54)">
  <rect class="key trans" x="0" y="0" width="52.0" height="52.0" rx="6"/>
  <text class="tap" style="font-size: 11px" x="26.0" y="26.0">▽</text>
</g>
<g transform="translate(324.75, 473.41)">
  <rect class="key trans" x="0" y="0" width="52.0" height="52.0" rx="6"/>
  <text class="tap" style="font-size: 11px" x="26.0" y="26.0">▽</text>
</g>
<g transform="translate(469.06, 473.46)">
  <rect class="key trans" x="0" y="0" width="52.0" height="52.0" rx="6"/>
  <text class="tap" style="font-size: 11px" x="26.0" y="26.0">▽</text>
</g>
<g transform="translate(527.23, 459.6)">
  <rect class="key" x="0" y="0" width="52.0" height="52.0" rx="6"/>
  <text class="tap" style="font-size: 11px" x="26.0" y="26.0">|</text>
</g>
<g transform="translate(585.35, 452.0)">
  <rect class="key" x="0" y="0" width="52.0" height="52.0" rx="6"/>
  <text class="tap" style="font-size: 11px" x="26.0" y="26.0">&lt;&gt;</text>
</g>
<g transform="translate(643.52, 444.35)">
  <rect class="key" x="0" y="0" width="52.0" height="52.0" rx="6"/>
  <text class="tap" style="font-size: 11px" x="26.0" y="26.0">``</text>
</g>
<g transform="translate(701.7, 458.73)">
  <rect class="key" x="0" y="0" width="52.0" height="52.0" rx="6"/>
  <text class="tap" style="font-size: 11px" x="26.0" y="26.0">&lt;</text>
</g>
<g transform="translate(759.81, 480.08)">
  <rect class="key" x="0" y="0" width="52.0" height="52.0" rx="6"/>
  <text class="tap" style="font-size: 11px" x="26.0" y="26.0">&gt;</text>
</g>
<g transform="translate(34.0, 538.19)">
  <rect class="key trans" x="0" y="0" width="52.0" height="52.0" rx="6"/>
  <text class="tap" style="font-size: 11px" x="26.0" y="26.0">▽</text>
</g>
<g transform="translate(92.17, 516.79)">
  <rect class="key trans" x="0" y="0" width="52.0" height="52.0" rx="6"/>
  <text class="tap" style="font-size: 11px" x="26.0" y="26.0">▽</text>
</g>
<g transform="translate(150.23, 502.41)">
  <rect class="key trans" x="0" y="0" width="52.0" height="52.0" rx="6"/>
  <text class="tap" style="font-size: 11px" x="26.0" y="26.0">▽</text>
</g>
<g transform="translate(220.7, 532.45)">
  <rect class="key trans" x="0" y="0" width="52.0" height="52.0" rx="6"/>
  <text class="tap" style="font-size: 11px" x="26.0" y="26.0">▽</text>
</g>
<g transform="translate(285.84, 537.79)">
  <rect class="key trans" x="0" y="0" width="52.0" height="52.0" rx="6"/>
  <text class="tap" style="font-size: 11px" x="26.0" y="26.0">▽</text>
</g>
<g transform="translate(350.16, 554.72)">
  <rect class="key trans" x="0" y="0" width="52.0" height="52.0" rx="6"/>
  <text class="tap" style="font-size: 11px" x="26.0" y="26.0">▽</text>
</g>
<g transform="translate(443.42, 554.78)">
  <rect class="key held" x="0" y="0" width="52.0" height="52.0" rx="6"/>
  <text class="tap" style="font-size: 11px" x="26.0" y="26.0">held</text>
</g>
<g transform="translate(507.16, 537.73)">
  <rect class="key trans" x="0" y="0" width="52.0" height="52.0" rx="6"/>
  <text class="tap" style="font-size: 11px" x="26.0" y="26.0">▽</text>
</g>
<g transform="translate(759.81, 538.25)">
  <rect class="key trans" x="0" y="0" width="52.0" height="52.0" rx="6"/>
  <text class="tap" style="font-size: 11px" x="26.0" y="26.0">▽</text>
</g>
<text class="title" x="34.0" y="598.0">NUM:</text>
<g transform="translate(34.0, 647.73)">
  <rect class="key trans" x="0" y="0" width="52.0" height="52.0" rx="6"/>
  <text class="tap" style="font-size: 11px" x="26.0" y="26.0">▽</text>
</g>
<g transform="translate(92.17, 626.33)">
  <rect class="key" x="0" y="0" width="52.0" height="52.0" rx="6"/>
  <text class="tap" style="font-size: 11px" x="26.0" y="26.0">7</text>
</g>
<g transform="translate(150.29, 612.0)">
  <rect class="key" x="0" y="0" width="52.0" height="52.0" rx="6"/>
  <text class="tap" style="font-size: 11px" x="26.0" y="26.0">8</text>
</g>
<g transform="translate(208.46, 619.66)">
  <rect class="key" x="0" y="0" width="52.0" height="52.0" rx="6"/>
  <text class="tap" style="font-size: 11px" x="26.0" y="26.0">9</text>
</g>
<g transform="translate(266.64, 627.25)">
  <rect class="key trans" x="0" y="0" width="52.0" height="52.0" rx="6"/>
  <text class="tap" style="font-size: 11px" x="26.0" y="26.0">▽</text>
</g>
<g transform="translate(527.23, 627.31)">
  <rect class="key trans" x="0" y="0" width="52.0" height="52.0" rx="6"/>
  <text class="tap" style="font-size: 11px" x="26.0" y="26.0">▽</text>
</g>
<g transform="translate(585.35, 619.71)">
  <rect class="key" x="0" y="0" width="52.0" height="52.0" rx="6"/>
  <text class="tap" style="font-size: 11px" x="26.0" y="26.0">PAGE UP</text>
</g>
<g transform="translate(643.52, 612.06)">
  <rect class="key" x="0" y="0" width="52.0" height="52.0" rx="6"/>
  <text class="tap" style="font-size: 11px" x="26.0" y="26.0">UP ARROW</text>
</g>
<g transform="translate(701.7, 626.38)">
  <rect class="key" x="0" y="0" width="52.0" height="52.0" rx="6"/>
  <text class="tap" style="font-size: 10px" x="26.0" y="26.0">PAGE DOWN</text>
</g>
<g transform="translate(759.81, 647.79)">
  <rect class="key trans" x="0" y="0" width="52.0" height="52.0" rx="6"/>
  <text class="tap" style="font-size: 11px" x="26.0" y="26.0">▽</text>
</g>
<g transform="translate(34.0, 705.84)">
  <rect class="key" x="0" y="0" width="52.0" height="52.0" rx="6"/>
  <text class="tap" style="font-size: 11px" x="26.0" y="26.0">0</text>
</g>
<g transform="translate(92.17, 684.5)">
  <rect class="key" x="0" y="0" width="52.0" height="52.0" rx="6"/>
  <text class="tap" style="font-size: 11px" x="26.0" y="26.0">4</text>
</g>
<g transform="translate(150.29, 670.17)">
  <rect class="key" x="0" y="0" width="52.0" height="52.0" rx="6"/>
  <text class="tap" style="font-size: 11px" x="26.0" y="26.0">5</text>
</g>
<g transform="translate(208.46, 677.77)">
  <rect class="key" x="0" y="0" width="52.0" height="52.0" rx="6"/>
  <text class="tap" style="font-size: 11px" x="26.0" y="26.0">6</text>
</g>
<g transform="translate(266.64, 685.43)">
  <rect class="key trans" x="0" y="0" width="52.0" height="52.0" rx="6"/>
  <text class="tap" style="font-size: 11px" x="26.0" y="26.0">▽</text>
</g>
<g transform="translate(324.87, 699.23)">
  <rect class="key trans" x="0" y="0" width="52.0" height="52.0" rx="6"/>
  <text class="tap" style="font-size: 11px" x="26.0" y="26.0">▽</text>
</g>
<g transform="translate(469.06, 699.29)">
  <rect class="key trans" x="0" y="0" width="52.0" height="52.0" rx="6"/>
  <text class="tap" style="font-size: 11px" x="26.0" y="26.0">▽</text>
</g>
<g transform="translate(527.23, 685.49)">
  <rect class="key trans" x="0" y="0" width="52.0" height="52.0" rx="6"/>
  <text class="tap" style="font-size: 11px" x="26.0" y="26.0">▽</text>
</g>
<g transform="translate(585.35, 677.83)">
  <rect class="key" x="0" y="0" width="52.0" height="52.0" rx="6"/>
  <text class="tap" style="font-size: 11px" x="26.0" y="26.0">LEFT</text>
</g>
<g transform="translate(643.52, 670.23)">
  <rect class="key" x="0" y="0" width="52.0" height="52.0" rx="6"/>
  <text class="tap" x="26.0" y="20.0">DOWN</text>
  <text class="tap" x="26.0" y="34.0">ARROW</text>
</g>
<g transform="translate(701.7, 684.56)">
  <rect class="key" x="0" y="0" width="52.0" height="52.0" rx="6"/>
  <text class="tap" style="font-size: 11px" x="26.0" y="26.0">RIGHT</text>
</g>
<g transform="translate(759.81, 705.9)">
  <rect class="key" x="0" y="0" width="52.0" height="52.0" rx="6"/>
  <text class="tap" style="font-size: 11px" x="26.0" y="26.0">HOME</text>
</g>
<g transform="translate(34.0, 764.02)">
  <rect class="key trans" x="0" y="0" width="52.0" height="52.0" rx="6"/>
  <text class="tap" style="font-size: 11px" x="26.0" y="26.0">▽</text>
</g>
<g transform="translate(92.17, 742.67)">
  <rect class="key" x="0" y="0" width="52.0" height="52.0" rx="6"/>
  <text class="tap" style="font-size: 11px" x="26.0" y="26.0">1</text>
</g>
<g transform="translate(150.29, 728.29)">
  <rect class="key" x="0" y="0" width="52.0" height="52.0" rx="6"/>
  <text class="tap" style="font-size: 11px" x="26.0" y="26.0">2</text>
</g>
<g transform="translate(208.46, 735.95)">
  <rect class="key" x="0" y="0" width="52.0" height="52.0" rx="6"/>
  <text class="tap" style="font-size: 11px" x="26.0" y="26.0">3</text>
</g>
<g transform="translate(266.64, 743.54)">
  <rect class="key trans" x="0" y="0" width="52.0" height="52.0" rx="6"/>
  <text class="tap" style="font-size: 11px" x="26.0" y="26.0">▽</text>
</g>
<g transform="translate(324.75, 757.41)">
  <rect class="key trans" x="0" y="0" width="52.0" height="52.0" rx="6"/>
  <text class="tap" style="font-size: 11px" x="26.0" y="26.0">▽</text>
</g>
<g transform="translate(469.06, 757.46)">
  <rect class="key trans" x="0" y="0" width="52.0" height="52.0" rx="6"/>
  <text class="tap" style="font-size: 11px" x="26.0" y="26.0">▽</text>
</g>
<g transform="translate(527.23, 743.6)">
  <rect class="key trans" x="0" y="0" width="52.0" height="52.0" rx="6"/>
  <text class="tap" style="font-size: 11px" x="26.0" y="26.0">▽</text>
</g>
<g transform="translate(585.35, 736.0)">
  <rect class="key" x="0" y="0" width="52.0" height="52.0" rx="6"/>
  <text class="tap" style="font-size: 11px" x="26.0" y="26.0">Gui++</text>
</g>
<g transform="translate(643.52, 728.35)">
  <rect class="key" x="0" y="0" width="52.0" height="52.0" rx="6"/>
  <text class="tap" style="font-size: 11px" x="26.0" y="26.0">Gui+0</text>
</g>
<g transform="translate(701.7, 742.73)">
  <rect class="key" x="0" y="0" width="52.0" height="52.0" rx="6"/>
  <text class="tap" style="font-size: 11px" x="26.0" y="26.0">Gui+-</text>
</g>
<g transform="translate(759.81, 764.08)">
  <rect class="key" x="0" y="0" width="52.0" height="52.0" rx="6"/>
  <text class="tap" style="font-size: 11px" x="26.0" y="26.0">END</text>
</g>
<g transform="translate(34.0, 822.19)">
  <rect class="key trans" x="0" y="0" width="52.0" height="52.0" rx="6"/>
  <text class="tap" style="font-size: 11px" x="26.0" y="26.0">▽</text>
</g>
<g transform="translate(92.17, 800.79)">
  <rect class="key trans" x="0" y="0" width="52.0" height="52.0" rx="6"/>
  <text class="tap" style="font-size: 11px" x="26.0" y="26.0">▽</text>
</g>
<g transform="translate(150.23, 786.41)">
  <rect class="key trans" x="0" y="0" width="52.0" height="52.0" rx="6"/>
  <text class="tap" style="font-size: 11px" x="26.0" y="26.0">▽</text>
</g>
<g transform="translate(220.7, 816.45)">
  <rect class="key trans" x="0" y="0" width="52.0" height="52.0" rx="6"/>
  <text class="tap" style="font-size: 11px" x="26.0" y="26.0">▽</text>
</g>
<g transform="translate(285.84, 821.79)">
  <rect class="key held" x="0" y="0" width="52.0" height="52.0" rx="6"/>
  <text class="tap" style="font-size: 11px" x="26.0" y="26.0">held</text>
</g>
<g transform="translate(350.16, 838.72)">
  <rect class="key trans" x="0" y="0" width="52.0" height="52.0" rx="6"/>
  <text class="tap" style="font-size: 11px" x="26.0" y="26.0">▽</text>
</g>
<g transform="translate(443.42, 838.78)">
  <rect class="key trans" x="0" y="0" width="52.0" height="52.0" rx="6"/>
  <text class="tap" style="font-size: 11px" x="26.0" y="26.0">▽</text>
</g>
<g transform="translate(507.16, 821.73)">
  <rect class="key trans" x="0" y="0" width="52.0" height="52.0" rx="6"/>
  <text class="tap" style="font-size: 11px" x="26.0" y="26.0">▽</text>
</g>
<g transform="translate(759.81, 822.25)">
  <rect class="key trans" x="0" y="0" width="52.0" height="52.0" rx="6"/>
  <text class="tap" style="font-size: 11px" x="26.0" y="26.0">▽</text>
</g>
<text class="title" x="34.0" y="882.0">SCROLL:</text>
<g transform="translate(34.0, 931.73)">
  <rect class="key trans" x="0" y="0" width="52.0" height="52.0" rx="6"/>
  <text class="tap" style="font-size: 11px" x="26.0" y="26.0">▽</text>
</g>
<g transform="translate(92.17, 910.33)">
  <rect class="key" x="0" y="0" width="52.0" height="52.0" rx="6"/>
  <text class="tap" x="26.0" y="20.0">Ctl+DOWN</text>
  <text class="tap" x="26.0" y="34.0">ARROW</text>
</g>
<g transform="translate(150.29, 896.0)">
  <rect class="key" x="0" y="0" width="52.0" height="52.0" rx="6"/>
  <text class="tap" x="26.0" y="20.0">Ctl+UP</text>
  <text class="tap" x="26.0" y="34.0">ARROW</text>
</g>
<g transform="translate(208.46, 903.66)">
  <rect class="key" x="0" y="0" width="52.0" height="52.0" rx="6"/>
  <text class="tap" style="font-size: 11px" x="26.0" y="26.0">Sft+F3</text>
</g>
<g transform="translate(266.64, 911.25)">
  <rect class="key trans" x="0" y="0" width="52.0" height="52.0" rx="6"/>
  <text class="tap" style="font-size: 11px" x="26.0" y="26.0">▽</text>
</g>
<g transform="translate(527.23, 911.31)">
  <rect class="key trans" x="0" y="0" width="52.0" height="52.0" rx="6"/>
  <text class="tap" style="font-size: 11px" x="26.0" y="26.0">▽</text>
</g>
<g transform="translate(585.35, 903.71)">
  <rect class="key trans" x="0" y="0" width="52.0" height="52.0" rx="6"/>
  <text class="tap" style="font-size: 11px" x="26.0" y="26.0">▽</text>
</g>
<g transform="translate(643.52, 896.06)">
  <rect class="key" x="0" y="0" width="52.0" height="52.0" rx="6"/>
  <text class="tap" x="26.0" y="20.0">&amp;msc</text>
  <text class="tap" x="26.0" y="34.0">SCRL_UP</text>
</g>
<g transform="translate(701.7, 910.38)">
  <rect class="key trans" x="0" y="0" width="52.0" height="52.0" rx="6"/>
  <text class="tap" style="font-size: 11px" x="26.0" y="26.0">▽</text>
</g>
<g transform="translate(759.81, 931.79)">
  <rect class="key trans" x="0" y="0" width="52.0" height="52.0" rx="6"/>
  <text class="tap" style="font-size: 11px" x="26.0" y="26.0">▽</text>
</g>
<g transform="translate(34.0, 989.84)">
  <rect class="key" x="0" y="0" width="52.0" height="52.0" rx="6"/>
  <text class="tap" style="font-size: 10px" x="26.0" y="26.0">Ctl+Sft+TAB</text>
</g>
<g transform="translate(92.17, 968.5)">
  <rect class="key" x="0" y="0" width="52.0" height="52.0" rx="6"/>
  <text class="tap" style="font-size: 11px" x="26.0" y="26.0">Ctl+TAB</text>
</g>
<g transform="translate(150.29, 954.17)">
  <rect class="key" x="0" y="0" width="52.0" height="52.0" rx="6"/>
  <text class="tap" style="font-size: 10px" x="26.0" y="26.0">Gui+Sft+TAB</text>
</g>
<g transform="translate(208.46, 961.77)">
  <rect class="key" x="0" y="0" width="52.0" height="52.0" rx="6"/>
  <text class="tap" style="font-size: 11px" x="26.0" y="26.0">Gui+TAB</text>
</g>
<g transform="translate(266.64, 969.43)">
  <rect class="key trans" x="0" y="0" width="52.0" height="52.0" rx="6"/>
  <text class="tap" style="font-size: 11px" x="26.0" y="26.0">▽</text>
</g>
<g transform="translate(324.87, 983.23)">
  <rect class="key" x="0" y="0" width="52.0" height="52.0" rx="6"/>
  <text class="tap" style="font-size: 11px" x="26.0" y="26.0">MUTE</text>
</g>
<g transform="translate(469.06, 983.29)">
  <rect class="key trans" x="0" y="0" width="52.0" height="52.0" rx="6"/>
  <text class="tap" style="font-size: 11px" x="26.0" y="26.0">▽</text>
</g>
<g transform="translate(527.23, 969.49)">
  <rect class="key trans" x="0" y="0" width="52.0" height="52.0" rx="6"/>
  <text class="tap" style="font-size: 11px" x="26.0" y="26.0">▽</text>
</g>
<g transform="translate(585.35, 961.83)">
  <rect class="key" x="0" y="0" width="52.0" height="52.0" rx="6"/>
  <text class="tap" x="26.0" y="20.0">&amp;msc</text>
  <text class="tap" x="26.0" y="34.0">SCRL_LEFT</text>
</g>
<g transform="translate(643.52, 954.23)">
  <rect class="key" x="0" y="0" width="52.0" height="52.0" rx="6"/>
  <text class="tap" x="26.0" y="20.0">&amp;msc</text>
  <text class="tap" x="26.0" y="34.0">SCRL_DOWN</text>
</g>
<g transform="translate(701.7, 968.56)">
  <rect class="key" x="0" y="0" width="52.0" height="52.0" rx="6"/>
  <text class="tap" x="26.0" y="20.0">&amp;msc</text>
  <text class="tap" x="26.0" y="34.0">SCRL_RIGHT</text>
</g>
<g transform="translate(759.81, 989.9)">
  <rect class="key trans" x="0" y="0" width="52.0" height="52.0" rx="6"/>
  <text class="tap" style="font-size: 11px" x="26.0" y="26.0">▽</text>
</g>
<g transform="translate(34.0, 1048.02)">
  <rect class="key trans" x="0" y="0" width="52.0" height="52.0" rx="6"/>
  <text class="tap" style="font-size: 11px" x="26.0" y="26.0">▽</text>
</g>
<g transform="translate(92.17, 1026.67)">
  <rect class="key trans" x="0" y="0" width="52.0" height="52.0" rx="6"/>
  <text class="tap" style="font-size: 11px" x="26.0" y="26.0">▽</text>
</g>
<g transform="translate(150.29, 1012.29)">
  <rect class="key" x="0" y="0" width="52.0" height="52.0" rx="6"/>
  <text class="tap" x="26.0" y="20.0">Gui+LEFT</text>
  <text class="tap" x="26.0" y="34.0">ARROW</text>
</g>
<g transform="translate(208.46, 1019.95)">
  <rect class="key" x="0" y="0" width="52.0" height="52.0" rx="6"/>
  <text class="tap" x="26.0" y="20.0">Gui+RIGHT</text>
  <text class="tap" x="26.0" y="34.0">ARROW</text>
</g>
<g transform="translate(266.64, 1027.54)">
  <rect class="key trans" x="0" y="0" width="52.0" height="52.0" rx="6"/>
  <text class="tap" style="font-size: 11px" x="26.0" y="26.0">▽</text>
</g>
<g transform="translate(324.75, 1041.41)">
  <rect class="key trans" x="0" y="0" width="52.0" height="52.0" rx="6"/>
  <text class="tap" style="font-size: 11px" x="26.0" y="26.0">▽</text>
</g>
<g transform="translate(469.06, 1041.46)">
  <rect class="key trans" x="0" y="0" width="52.0" height="52.0" rx="6"/>
  <text class="tap" style="font-size: 11px" x="26.0" y="26.0">▽</text>
</g>
<g transform="translate(527.23, 1027.6)">
  <rect class="key trans" x="0" y="0" width="52.0" height="52.0" rx="6"/>
  <text class="tap" style="font-size: 11px" x="26.0" y="26.0">▽</text>
</g>
<g transform="translate(585.35, 1020.0)">
  <rect class="key trans" x="0" y="0" width="52.0" height="52.0" rx="6"/>
  <text class="tap" style="font-size: 11px" x="26.0" y="26.0">▽</text>
</g>
<g transform="translate(643.52, 1012.35)">
  <rect class="key trans" x="0" y="0" width="52.0" height="52.0" rx="6"/>
  <text class="tap" style="font-size: 11px" x="26.0" y="26.0">▽</text>
</g>
<g transform="translate(701.7, 1026.73)">
  <rect class="key trans" x="0" y="0" width="52.0" height="52.0" rx="6"/>
  <text class="tap" style="font-size: 11px" x="26.0" y="26.0">▽</text>
</g>
<g transform="translate(759.81, 1048.08)">
  <rect class="key trans" x="0" y="0" width="52.0" height="52.0" rx="6"/>
  <text class="tap" style="font-size: 11px" x="26.0" y="26.0">▽</text>
</g>
<g transform="translate(34.0, 1106.19)">
  <rect class="key trans" x="0" y="0" width="52.0" height="52.0" rx="6"/>
  <text class="tap" style="font-size: 11px" x="26.0" y="26.0">▽</text>
</g>
<g transform="translate(92.17, 1084.79)">
  <rect class="key trans" x="0" y="0" width="52.0" height="52.0" rx="6"/>
  <text class="tap" style="font-size: 11px" x="26.0" y="26.0">▽</text>
</g>
<g transform="translate(150.23, 1070.41)">
  <rect class="key trans" x="0" y="0" width="52.0" height="52.0" rx="6"/>
  <text class="tap" style="font-size: 11px" x="26.0" y="26.0">▽</text>
</g>
<g transform="translate(220.7, 1100.45)">
  <rect class="key held" x="0" y="0" width="52.0" height="52.0" rx="6"/>
  <text class="tap" style="font-size: 11px" x="26.0" y="26.0">held</text>
</g>
<g transform="translate(285.84, 1105.79)">
  <rect class="key trans" x="0" y="0" width="52.0" height="52.0" rx="6"/>
  <text class="tap" style="font-size: 11px" x="26.0" y="26.0">▽</text>
</g>
<g transform="translate(350.16, 1122.72)">
  <rect class="key trans" x="0" y="0" width="52.0" height="52.0" rx="6"/>
  <text class="tap" style="font-size: 11px" x="26.0" y="26.0">▽</text>
</g>
<g transform="translate(443.42, 1122.78)">
  <rect class="key trans" x="0" y="0" width="52.0" height="52.0" rx="6"/>
  <text class="tap" style="font-size: 11px" x="26.0" y="26.0">▽</text>
</g>
<g transform="translate(507.16, 1105.73)">
  <rect class="key trans" x="0" y="0" width="52.0" height="52.0" rx="6"/>
  <text class="tap" style="font-size: 11px" x="26.0" y="26.0">▽</text>
</g>
<g transform="translate(759.81, 1106.25)">
  <rect class="key trans" x="0" y="0" width="52.0" height="52.0" rx="6"/>
  <text class="tap" style="font-size: 11px" x="26.0" y="26.0">▽</text>
</g>
<text class="title" x="34.0" y="1188.0">combos:</text>
<text class="combo" x="34.0" y="1210.0">19+18: J</text>
<text class="combo" x="34.0" y="1228.0">20+19: &amp;mkp MB2</text>
</svg>
